<svg width="144" height="144" viewBox="0 0 144 144" fill="none" xmlns="http://www.w3.org/2000/svg">
<circle cx="72" cy="72" r="72" fill="#D9D9D9"/>
<path d="M123.353 72.2647C123.353 85.8142 117.97 98.8087 108.39 108.39C98.8086 117.97 85.8141 123.353 72.2647 123.353C58.7152 123.353 45.7208 117.97 36.1399 108.39C26.559 98.8087 21.1765 85.8142 21.1765 72.2647L72.2647 72.2647L123.353 72.2647Z" fill="white"/>
<path d="M123.353 72.2647C123.353 58.7153 117.97 45.7208 108.39 36.1399C98.8086 26.559 85.8141 21.1765 72.2647 21.1765C58.7152 21.1765 45.7208 26.559 36.1399 36.1399C26.559 45.7208 21.1765 58.7153 21.1765 72.2647L72.2647 72.2647L123.353 72.2647Z" fill="#B90000"/>
<circle cx="72" cy="72" r="11.6471" fill="#0A0A0A"/>
</svg>
